<?xml version="1.0" standalone="no"?>
<!DOCTYPE svg PUBLIC "-//W3C//DTD SVG 20010904//EN"
 "http://www.w3.org/TR/2001/REC-SVG-20010904/DTD/svg10.dtd">
<svg version="1.0" xmlns="http://www.w3.org/2000/svg"
 width="1500.000000pt" height="1500.000000pt" viewBox="0 0 1500.000000 1500.000000"
 preserveAspectRatio="xMidYMid meet">
<metadata>
Created by potrace 1.11, written by Peter Selinger 2001-2013
</metadata>
<g transform="translate(0.000000,1500.000000) scale(0.100000,-0.100000)"
fill="#000000" stroke="none">
<path d="M7663 8115 c-14 -10 -31 -42 -43 -83 -50 -158 -89 -592 -70 -763 6
-50 9 -93 8 -94 -5 -4 -472 -25 -475 -21 -4 4 -22 236 -29 389 -5 105 -8 117
-24 117 -11 0 -23 -6 -27 -14 -10 -18 2 -324 16 -421 6 -38 7 -73 2 -78 -4 -4
-53 -14 -107 -22 -253 -37 -295 -45 -346 -71 -93 -46 -105 -67 -65 -106 12
-12 32 -36 45 -52 102 -135 228 -220 382 -256 l93 -22 42 20 c41 20 43 23 54
84 11 56 10 78 -8 174 -27 146 -29 178 -8 198 9 10 17 13 17 7 0 -13 47 -4 68
12 13 10 80 16 295 24 84 4 97 2 97 -12 0 -30 50 -135 101 -210 29 -42 50 -77
48 -79 -2 -1 -35 -13 -74 -25 -38 -13 -92 -34 -120 -46 -27 -13 -72 -31 -100
-40 -107 -36 -244 -133 -366 -261 -47 -49 -78 -93 -107 -154 -53 -113 -57
-136 -37 -228 43 -194 158 -347 310 -412 112 -48 322 -45 435 6 73 32 74 43 1
14 -28 -11 -64 -20 -79 -19 -26 1 -26 1 6 10 17 5 32 14 32 20 0 6 4 8 9 4 5
-3 12 -1 15 4 3 4 19 11 36 15 60 12 199 127 279 230 23 30 66 102 96 161 65
127 73 123 13 -6 -22 -49 -38 -92 -35 -95 4 -4 27 36 51 87 34 70 51 95 68 99
29 7 71 86 59 108 -5 9 -18 16 -30 17 -17 1 -19 -3 -15 -21 3 -12 2 -33 -2
-46 -7 -22 -7 -22 -14 -3 -4 11 -3 26 3 33 8 10 7 16 -4 22 -11 8 -12 13 -1
30 6 11 12 28 13 37 0 14 2 13 9 -5 11 -26 37 -39 51 -25 12 12 50 189 53 248
0 17 3 32 6 35 11 10 30 102 30 143 0 23 7 76 16 117 9 41 14 94 11 117 -2 23
-1 45 4 50 5 5 10 33 11 63 1 30 5 60 10 66 5 7 10 38 12 70 9 135 15 167 57
314 31 107 50 203 56 291 5 71 3 77 -22 107 -20 24 -35 32 -60 32 -41 0 -47
-17 -64 -165 -7 -55 -19 -149 -27 -210 -36 -253 -41 -275 -93 -382 -88 -181
-176 -295 -261 -337 -61 -31 -167 -51 -185 -36 -29 24 -75 121 -100 210 -29
105 -49 312 -35 375 5 22 12 92 15 155 4 63 11 123 16 132 5 9 9 28 9 43 0 14
15 65 34 113 48 122 50 135 32 170 -14 27 -51 62 -66 62 -3 0 -15 -7 -27 -15z
m725 -296 c-6 -16 -13 -28 -15 -25 -8 8 6 56 17 56 5 0 5 -13 -2 -31z m-33
-236 c-3 -23 -11 -45 -17 -49 -6 -4 -8 4 -4 22 3 16 9 52 13 79 6 40 8 44 11
21 2 -17 1 -49 -3 -73z m-41 -450 c-1 -53 -10 -123 -25 -193 -5 -25 -12 -70
-15 -100 -10 -103 -12 -115 -19 -132 -4 -10 -5 -24 -2 -32 3 -8 3 -17 -1 -21
-4 -4 -7 -10 -8 -13 0 -4 -4 -15 -9 -25 -4 -10 -5 -36 -1 -57 5 -32 3 -40 -9
-40 -8 0 -15 -7 -15 -15 0 -8 4 -15 9 -15 4 0 6 -11 4 -24 -3 -16 -10 -23 -19
-19 -15 6 -13 34 11 158 15 76 48 298 65 438 9 69 26 137 34 137 1 0 1 -21 0
-47z m-1274 -85 c0 -13 11 -83 25 -156 26 -139 25 -151 -14 -186 -17 -16 -32
-18 -88 -14 -85 6 -159 38 -237 100 -53 43 -156 167 -156 189 0 14 23 23 65
25 22 1 103 16 180 32 77 17 159 31 183 31 37 1 42 -2 42 -21z m1205 -53 c-6
-49 -8 -53 -37 -59 -17 -3 -39 -6 -49 -6 -21 0 -20 2 40 68 16 18 33 42 37 55
11 35 17 2 9 -58z m-15 -97 c0 -63 -68 -435 -103 -563 -48 -172 -118 -292
-259 -441 -83 -87 -121 -114 -229 -161 -82 -36 -87 -37 -214 -38 -110 0 -135
3 -158 18 -15 10 -32 15 -38 12 -23 -15 -187 145 -217 211 -30 64 -44 168 -26
192 8 9 14 28 14 42 0 40 108 210 181 286 38 40 69 77 69 83 0 6 8 11 18 11
22 0 42 19 36 34 -3 7 15 17 42 25 25 8 58 24 74 37 15 13 35 24 44 24 18 0
47 15 85 43 13 9 31 17 41 17 9 0 52 16 95 36 71 33 82 35 115 25 65 -19 161
-7 200 26 71 61 97 77 147 93 80 25 83 25 83 -12z m-1265 -238 c18 -8 17 -9
-7 -9 -16 -1 -28 4 -28 9 0 12 8 12 35 0z m540 -991 c-22 -4 -56 -8 -75 -8
-28 0 -31 2 -15 9 11 5 45 8 75 8 55 0 55 0 15 -9z"/>
<path d="M4433 8105 c-63 -44 -116 -360 -117 -700 -1 -184 2 -230 17 -284 25
-89 65 -174 120 -256 26 -38 45 -70 43 -72 -1 -2 -36 -14 -77 -28 -41 -14 -99
-36 -129 -50 -30 -13 -83 -35 -117 -48 -158 -61 -388 -263 -455 -399 -56 -114
-63 -146 -49 -229 33 -203 169 -383 340 -451 109 -43 407 -26 451 26 9 12 -1
11 -44 -4 -30 -11 -63 -20 -73 -20 -20 0 41 32 106 57 66 24 157 91 232 170
65 70 162 219 195 301 9 24 19 41 22 38 5 -6 -13 -55 -53 -139 -15 -32 -25
-60 -22 -64 6 -6 87 157 87 176 0 6 10 11 23 11 12 0 27 4 32 8 16 11 45 91
39 107 -6 14 -40 15 -62 1 -16 -9 -15 4 2 44 12 29 14 30 19 11 3 -14 13 -21
30 -21 21 0 27 6 32 33 3 17 13 61 22 97 8 36 17 83 18 105 2 22 8 52 13 67
12 28 29 128 30 168 0 14 7 64 17 112 11 61 13 93 6 106 -7 14 -6 25 5 41 9
12 13 30 9 41 -3 11 -3 25 1 32 4 6 8 23 9 37 7 94 48 331 70 406 40 137 59
242 60 328 0 74 -2 80 -28 103 -37 32 -84 32 -96 2 -5 -13 -18 -97 -30 -188
-59 -456 -57 -447 -121 -580 -57 -117 -140 -240 -199 -293 -51 -45 -114 -71
-204 -83 -54 -8 -56 -6 -106 86 -42 77 -79 226 -86 345 -7 114 10 361 30 450
8 33 17 78 20 100 4 21 13 51 20 66 8 14 24 54 36 89 20 59 20 65 6 96 -9 18
-29 40 -45 48 -25 13 -32 13 -49 1z m743 -291 c-3 -9 -6 -22 -6 -30 0 -9 -4
-13 -9 -10 -11 7 -2 56 11 56 6 0 7 -7 4 -16z m-32 -206 c-2 -29 -9 -66 -14
-83 -8 -23 -9 -15 -5 37 5 63 12 98 20 98 2 0 2 -24 -1 -52z m-28 -305 c-10
-10 -19 5 -10 18 6 11 8 11 12 0 2 -7 1 -15 -2 -18z m-32 -332 c-10 -53 -19
-116 -20 -141 -1 -25 -7 -65 -14 -89 -6 -23 -9 -49 -6 -57 3 -8 1 -14 -5 -14
-7 0 -9 -13 -7 -30 3 -17 1 -33 -4 -36 -5 -3 -6 -10 -2 -15 3 -5 0 -16 -6 -24
-8 -10 -10 -30 -6 -60 6 -38 5 -44 -8 -39 -17 7 -23 -20 -7 -30 13 -8 1 -48
-13 -43 -12 4 -10 77 6 147 17 79 56 332 68 435 6 55 16 116 23 135 l12 35 3
-39 c2 -22 -5 -82 -14 -135z m-54 -14 c-4 -26 -10 -50 -13 -53 -3 -4 -27 -9
-53 -12 l-47 -5 19 22 c10 12 34 37 52 57 17 19 32 42 32 52 1 14 2 15 9 2 5
-8 6 -36 1 -63z m-10 -82 c0 -46 -72 -424 -107 -565 -53 -209 -81 -264 -214
-419 -97 -112 -165 -170 -244 -207 -131 -60 -164 -67 -296 -62 -70 3 -125 10
-132 17 -6 6 -22 11 -35 11 -25 0 -84 44 -164 124 -55 55 -96 140 -101 208 -1
24 -6 49 -10 56 -5 6 -4 12 2 12 6 0 17 24 26 52 20 69 118 232 169 283 23 22
55 57 71 77 17 19 39 37 50 39 11 2 21 13 23 24 2 15 18 26 55 39 29 10 61 26
72 35 11 10 39 23 62 31 24 7 50 21 59 32 10 10 26 18 37 18 11 0 54 16 96 36
82 39 93 41 163 25 54 -12 144 7 177 36 47 44 111 83 147 92 44 10 94 13 94 6z
m-64 -671 c-4 -13 -10 -24 -15 -24 -9 0 -7 22 5 60 7 21 9 22 12 7 2 -10 1
-29 -2 -43z m-657 -608 c-2 -2 -34 -7 -71 -11 -46 -4 -68 -3 -68 4 0 7 27 11
72 11 39 0 69 -2 67 -4z"/>
<path d="M5621 7763 c-31 -22 -51 -43 -49 -52 5 -24 51 -45 81 -38 26 7 31 16
41 78 9 52 -11 55 -73 12z"/>
<path d="M9396 7504 c-9 -8 -18 -25 -21 -37 -13 -58 -38 -209 -45 -272 -5 -38
-13 -88 -19 -110 -23 -90 -94 -331 -102 -347 -5 -10 -9 -25 -9 -34 0 -8 -13
-29 -29 -45 -23 -22 -39 -29 -69 -29 -42 0 -51 11 -66 83 -16 72 50 394 113
550 33 83 38 121 19 133 -6 4 -32 8 -57 9 -25 1 -67 5 -92 9 -115 20 -229 -42
-356 -192 -125 -147 -192 -314 -215 -532 -13 -126 -4 -169 46 -223 42 -47 72
-48 146 -5 51 29 170 139 170 157 0 4 25 54 55 111 31 57 53 110 50 117 -3 9
0 13 7 11 8 -3 16 -33 21 -74 10 -95 22 -125 68 -178 50 -56 70 -63 113 -38
l34 20 6 -26 c7 -31 70 -86 89 -79 7 3 24 40 37 83 14 44 51 123 82 177 55 93
118 233 118 262 0 7 7 18 15 25 12 10 13 15 3 28 -11 12 -10 16 1 20 24 8 56
45 43 50 -17 5 -15 32 3 32 8 0 15 6 15 13 0 8 9 22 19 31 22 20 22 31 2 -93
-5 -36 -8 -68 -5 -72 2 -4 0 -10 -5 -13 -16 -10 -23 -127 -12 -199 5 -37 19
-88 31 -112 25 -52 98 -110 152 -120 31 -6 39 -3 55 16 10 12 29 34 44 48 26
27 107 148 173 259 21 34 42 62 47 62 12 0 12 -17 0 -24 -5 -3 -9 -24 -9 -47
-1 -23 -8 -49 -16 -58 -11 -12 -14 -34 -11 -86 1 -39 4 -72 5 -75 1 -3 1 -27
0 -53 -1 -31 4 -55 13 -65 8 -10 17 -26 21 -37 3 -12 27 -38 52 -59 54 -45 73
-44 153 5 l52 32 32 -30 c18 -17 42 -36 54 -42 51 -26 163 -3 218 45 17 14 49
39 72 55 69 48 153 207 153 291 0 32 -42 121 -72 155 l-20 21 24 16 c14 9 105
37 203 62 99 25 181 47 184 50 16 16 -21 15 -87 -4 -132 -37 -315 -83 -353
-88 -55 -9 -169 57 -169 96 0 26 67 130 84 130 7 0 31 12 52 27 40 27 203 80
283 91 101 15 44 59 -96 73 -116 12 -157 7 -226 -27 -104 -52 -181 -135 -207
-220 -11 -37 -10 -44 17 -95 22 -42 39 -60 78 -81 28 -15 53 -29 57 -30 4 -2
5 -13 2 -25 -6 -20 -62 -63 -84 -63 -4 0 -23 -13 -42 -30 -19 -16 -58 -45 -87
-62 -43 -27 -60 -45 -87 -97 -39 -74 -41 -99 -14 -160 11 -24 20 -45 20 -47 0
-10 -61 -33 -96 -36 -37 -3 -40 -1 -59 37 -30 59 -28 241 3 345 12 41 30 100
38 130 9 30 35 118 59 195 60 192 64 219 35 250 -28 30 -84 34 -98 8 -5 -10
-15 -43 -22 -73 -7 -30 -28 -84 -46 -119 -19 -35 -34 -75 -34 -88 0 -12 -4
-23 -8 -23 -4 0 -27 -35 -51 -77 -137 -246 -260 -413 -305 -413 -42 0 -67 80
-66 210 1 110 -1 101 40 290 52 247 55 266 42 294 -13 28 -56 44 -81 29 -9 -5
-32 -40 -51 -79 -51 -101 -156 -321 -179 -376 -11 -27 -23 -48 -26 -48 -7 0
-4 18 41 248 40 202 41 224 13 263 -23 32 -49 37 -73 13z m-346 -159 c11 -13
10 -22 -2 -48 -9 -18 -25 -68 -37 -112 -41 -149 -212 -476 -294 -564 -39 -41
-167 -132 -177 -126 -16 10 -18 105 -3 190 18 104 54 219 90 290 15 27 35 67
45 87 31 60 184 199 260 237 37 18 72 39 79 47 15 18 24 18 39 -1z m977 -391
c-3 -3 -12 -4 -19 -1 -8 3 -5 6 6 6 11 1 17 -2 13 -5z m687 -16 c76 -109 -150
-408 -309 -408 -48 0 -65 34 -55 111 14 100 75 182 170 229 25 13 58 32 75 44
33 24 74 44 92 45 6 1 19 -9 27 -21z m-24 -258 c-6 -11 -13 -20 -15 -20 -3 0
-5 9 -5 20 0 11 7 20 15 20 13 0 14 -4 5 -20z m-52 -72 c-26 -34 -48 -47 -48
-28 0 15 46 60 61 60 6 0 0 -14 -13 -32z m-108 -88 c0 -5 -7 -10 -16 -10 -8 0
-12 5 -9 10 3 6 10 10 16 10 5 0 9 -4 9 -10z"/>
<path d="M5476 7428 c-24 -55 -109 -323 -147 -463 -28 -105 -47 -294 -36 -365
8 -58 33 -103 90 -163 29 -31 41 -37 76 -37 51 0 110 28 145 70 l26 32 0 -28
c0 -31 76 -110 117 -120 34 -9 69 19 77 61 4 19 19 50 34 68 15 18 32 41 39
52 69 117 103 179 122 225 13 30 35 73 50 95 14 22 32 52 40 67 8 15 22 30 32
33 11 4 15 12 12 25 -3 12 1 22 11 26 9 4 16 18 16 34 0 17 14 47 33 72 18 24
50 69 71 101 39 59 60 73 51 35 -15 -70 -28 -242 -28 -370 0 -146 0 -148 32
-213 27 -53 45 -75 94 -111 70 -52 94 -52 162 -2 42 30 115 129 115 155 0 26
-24 8 -61 -47 -25 -37 -51 -61 -84 -78 -61 -31 -88 -21 -118 46 -19 42 -21 64
-21 197 0 104 8 195 23 298 33 214 21 277 -56 277 -48 0 -99 -50 -207 -209
-82 -121 -150 -240 -257 -451 -58 -116 -161 -280 -175 -280 -18 0 -18 5 11
155 26 136 67 279 116 405 44 116 82 242 81 270 -2 27 -53 80 -77 80 -26 0
-56 -44 -76 -115 -18 -65 -86 -289 -114 -380 -7 -22 -20 -76 -29 -120 -10 -44
-19 -91 -22 -104 -6 -28 -117 -147 -156 -167 -24 -13 -28 -12 -58 16 l-33 30
6 98 c3 53 8 108 11 122 2 14 8 43 12 65 15 85 75 284 113 375 22 52 47 126
57 163 16 67 16 69 -3 95 -14 19 -31 28 -57 30 -35 3 -37 2 -60 -50z m894
-292 c0 -3 -4 -8 -10 -11 -5 -3 -10 -1 -10 4 0 6 5 11 10 11 6 0 10 -2 10 -4z
m-12 -61 c0 -14 -4 -28 -9 -31 -5 -3 -9 9 -9 25 0 17 4 31 9 31 5 0 9 -11 9
-25z m-13 -120 c0 -36 -3 -65 -7 -65 -9 0 -11 92 -2 114 3 9 7 16 8 16 0 0 1
-29 1 -65z"/>
<path d="M7955 5900 c-3 -5 1 -10 9 -10 9 0 16 5 16 10 0 6 -4 10 -9 10 -6 0
-13 -4 -16 -10z"/>
<path d="M4775 5890 c3 -5 8 -10 11 -10 2 0 4 5 4 10 0 6 -5 10 -11 10 -5 0
-7 -4 -4 -10z"/>
<path d="M4730 5830 c0 -5 5 -10 10 -10 6 0 10 5 10 10 0 6 -4 10 -10 10 -5 0
-10 -4 -10 -10z"/>
<path d="M7883 5823 c-15 -5 -17 -23 -4 -23 5 0 11 7 15 15 3 8 4 15 3 14 -1
0 -8 -3 -14 -6z"/>
<path d="M4645 5740 c-3 -5 -1 -10 4 -10 6 0 11 5 11 10 0 6 -2 10 -4 10 -3 0
-8 -4 -11 -10z"/>
<path d="M7763 5740 c-13 -5 -23 -14 -23 -20 0 -15 9 -12 37 10 27 21 22 24
-14 10z"/>
<path d="M4520 5655 c-7 -8 -8 -15 -2 -15 5 0 15 7 22 15 7 8 8 15 2 15 -5 0
-15 -7 -22 -15z"/>
<path d="M4480 5629 c0 -5 5 -7 10 -4 6 3 10 8 10 11 0 2 -4 4 -10 4 -5 0 -10
-5 -10 -11z"/>
</g>
</svg>
